<svg width="13" height="12" viewBox="0 0 13 12" fill="none" xmlns="http://www.w3.org/2000/svg">
<g clip-path="url(#clip0_2522_6076)">
<path d="M6.49988 4.49999V6.49999M6.49988 8.49999H6.50488M5.80754 1.94585L1.69509 9.04917C1.46699 9.44316 1.35294 9.64016 1.3698 9.80184C1.3845 9.94286 1.45838 10.071 1.57306 10.1544C1.70454 10.25 1.93217 10.25 2.38744 10.25H10.6123C11.0676 10.25 11.2952 10.25 11.4267 10.1544C11.5414 10.071 11.6153 9.94286 11.63 9.80184C11.6468 9.64016 11.5328 9.44316 11.3047 9.04916L7.19222 1.94585C6.96493 1.55327 6.85129 1.35698 6.70303 1.29105C6.5737 1.23355 6.42606 1.23355 6.29673 1.29105C6.14846 1.35698 6.03482 1.55327 5.80754 1.94585Z" stroke="#A4A4A4" stroke-linecap="round" stroke-linejoin="round"/>
</g>
<defs>
<clipPath id="clip0_2522_6076">
<rect width="12" height="12" fill="white" transform="translate(0.5)"/>
</clipPath>
</defs>
</svg>
