<svg width="31" height="30" viewBox="0 0 31 30" fill="none" xmlns="http://www.w3.org/2000/svg">
<path d="M18.0516 21.0456C18.2417 21.2364 18.3485 21.4947 18.3485 21.7641C18.3485 22.0334 18.2417 22.2917 18.0516 22.4825C17.8608 22.6726 17.6025 22.7794 17.3331 22.7794C17.0638 22.7794 16.8055 22.6726 16.6147 22.4825L9.42664 15.2862C9.40717 15.2679 9.39165 15.2459 9.38104 15.2214C9.37044 15.1969 9.36496 15.1704 9.36496 15.1437C9.36496 15.117 9.37044 15.0906 9.38104 15.0661C9.39165 15.0416 9.40717 15.0196 9.42664 15.0013L16.6147 7.81725C16.7089 7.72261 16.8209 7.64751 16.9442 7.59627C17.0674 7.54502 17.1996 7.51865 17.3331 7.51865C17.4667 7.51865 17.5989 7.54502 17.7221 7.59627C17.8454 7.64751 17.9574 7.72261 18.0516 7.81725C18.2417 8.00799 18.3485 8.26633 18.3485 8.53565C18.3485 8.80498 18.2417 9.06332 18.0516 9.25406L12.1537 15.1437L18.0516 21.0456Z" fill="#777777"/>
</svg>
