<svg width="31" height="31" viewBox="0 0 31 31" fill="none" xmlns="http://www.w3.org/2000/svg">
<rect x="0.916016" y="0.925293" width="29.2375" height="29.2375" rx="6.51674" fill="white"/>
<rect x="0.916016" y="0.925293" width="29.2375" height="29.2375" rx="6.51674" fill="url(#paint0_radial_2456_1063)" fill-opacity="0.1"/>
<g clip-path="url(#clip0_2456_1063)">
<path fill-rule="evenodd" clip-rule="evenodd" d="M21.1449 9.71533H9.30042C8.35209 9.71533 7.58105 10.4864 7.58105 11.4347V18.3122C7.58105 19.2605 8.35209 20.0315 9.30042 20.0315H17.096C17.0892 19.9314 17.0858 19.8303 17.0858 19.7284C17.0858 17.2698 19.0789 15.2767 21.5375 15.2767C21.9996 15.2767 22.4452 15.3471 22.8643 15.4778V11.4347C22.8643 10.4864 22.0933 9.71533 21.1449 9.71533ZM11.5929 13.1541H10.4467C10.1303 13.1541 9.87354 12.8973 9.87354 12.5809C9.87354 12.2646 10.1303 12.0078 10.4467 12.0078H11.5929C11.9093 12.0078 12.166 12.2646 12.166 12.5809C12.166 12.8973 11.9093 13.1541 11.5929 13.1541ZM15.2227 17.1659C13.9588 17.1659 12.9302 16.1374 12.9302 14.8734C12.9302 13.6095 13.9588 12.5809 15.2227 12.5809C16.4866 12.5809 17.5152 13.6095 17.5152 14.8734C17.5152 16.1374 16.4866 17.1659 15.2227 17.1659ZM25.3941 19.9364C25.3941 21.9534 23.7591 23.5884 21.7421 23.5884C19.7251 23.5884 18.09 21.9534 18.09 19.9364C18.09 17.9194 19.7251 16.2843 21.7421 16.2843C23.7591 16.2843 25.3941 17.9194 25.3941 19.9364ZM21.4468 21.5255V20.2283H20.1496V19.6392H21.4468V18.349H22.0359V19.6392H23.3296V20.2283H22.0359V21.5255H21.4468Z" fill="#5926F0"/>
</g>
<defs>
<radialGradient id="paint0_radial_2456_1063" cx="0" cy="0" r="1" gradientUnits="userSpaceOnUse" gradientTransform="translate(15.0889 45.41) rotate(-90) scale(75.7507 36.4395)">
<stop stop-color="#E64067"/>
<stop offset="0.55653" stop-color="#5926F0"/>
<stop offset="1" stop-color="#4828A0"/>
</radialGradient>
<clipPath id="clip0_2456_1063">
<rect width="20.3648" height="18.7356" fill="white" transform="translate(5.35156 6.17529)"/>
</clipPath>
</defs>
</svg>
