<svg width="18" height="19" viewBox="0 0 18 19" fill="none" xmlns="http://www.w3.org/2000/svg">
<rect y="0.5" width="18" height="18" rx="4" fill="white"/>
<rect y="0.5" width="18" height="18" rx="4" fill="url(#paint0_radial_2456_1106)" fill-opacity="0.1"/>
<g clip-path="url(#clip0_2456_1106)">
<path d="M11.3089 3.34351H6.69155C4.56679 3.34351 2.84375 5.06655 2.84375 7.1913V11.8087C2.84375 13.9334 4.56679 15.6565 6.69155 15.6565H11.3089C13.4337 15.6565 15.1567 13.9334 15.1567 11.8087V7.1913C15.1567 5.06655 13.4337 3.34351 11.3089 3.34351ZM14.0024 11.8087C14.0024 13.2939 12.7941 14.5021 11.3089 14.5021H6.69155C5.2063 14.5021 3.99809 13.2939 3.99809 11.8087V7.1913C3.99809 5.70605 5.2063 4.49784 6.69155 4.49784H11.3089C12.7941 4.49784 14.0024 5.70605 14.0024 7.1913V11.8087Z" fill="black"/>
<path d="M9.00011 6.42188C7.30016 6.42188 5.92188 7.80016 5.92188 9.50011C5.92188 11.2001 7.30016 12.5783 9.00011 12.5783C10.7001 12.5783 12.0783 11.2001 12.0783 9.50011C12.0783 7.80016 10.7001 6.42188 9.00011 6.42188ZM9.00011 11.424C7.93966 11.424 7.07621 10.5606 7.07621 9.50011C7.07621 8.43889 7.93966 7.57621 9.00011 7.57621C10.0606 7.57621 10.924 8.43889 10.924 9.50011C10.924 10.5606 10.0606 11.424 9.00011 11.424Z" fill="black"/>
<path d="M12.3096 6.60111C12.5361 6.60111 12.7198 6.41747 12.7198 6.19094C12.7198 5.9644 12.5361 5.78076 12.3096 5.78076C12.0831 5.78076 11.8994 5.9644 11.8994 6.19094C11.8994 6.41747 12.0831 6.60111 12.3096 6.60111Z" fill="black"/>
</g>
<defs>
<radialGradient id="paint0_radial_2456_1106" cx="0" cy="0" r="1" gradientUnits="userSpaceOnUse" gradientTransform="translate(8.72551 27.8869) rotate(-90) scale(46.6357 22.4339)">
<stop stop-color="#E64067"/>
<stop offset="0.55653" stop-color="#5926F0"/>
<stop offset="1" stop-color="#4828A0"/>
</radialGradient>
<clipPath id="clip0_2456_1106">
<rect width="12.3129" height="12.3129" fill="white" transform="translate(2.84375 3.34351)"/>
</clipPath>
</defs>
</svg>
