<svg width="31" height="30" viewBox="0 0 31 30" fill="none" xmlns="http://www.w3.org/2000/svg">
<rect x="0.916016" y="0.162842" width="29.2375" height="29.2375" rx="6.51674" fill="white"/>
<rect x="0.916016" y="0.162842" width="29.2375" height="29.2375" rx="6.51674" fill="url(#paint0_radial_2456_1077)" fill-opacity="0.1"/>
<path fill-rule="evenodd" clip-rule="evenodd" d="M20.8651 13.5485C20.8651 13.7258 20.8564 13.9012 20.8395 14.0744C20.8395 14.0755 20.8395 14.0767 20.8389 14.0779C20.8348 14.1204 20.8302 14.1624 20.8249 14.2044C20.8197 14.2481 20.8138 14.2912 20.8074 14.3344C20.801 14.3775 20.794 14.4201 20.7864 14.4632C20.7789 14.5058 20.7707 14.5489 20.7625 14.5915C20.7491 14.6579 20.7345 14.7244 20.7188 14.7902C20.7071 14.8392 20.6937 14.8876 20.6809 14.936C20.6768 14.9511 20.6728 14.9663 20.6687 14.982C20.6529 15.0386 20.636 15.0951 20.618 15.1517C20.6168 15.1552 20.6156 15.1587 20.6145 15.1628C19.9312 17.3168 17.9165 18.8786 15.5351 18.8786V24.155L12.8704 21.5672L10.2051 18.8698V13.4733H15.5351L10.2144 8.22725H15.2331C15.3334 8.22142 15.4337 8.21851 15.5351 8.21851C17.9148 8.21851 19.9289 9.77793 20.6133 11.9308C20.6156 11.9372 20.6174 11.9436 20.6197 11.95C20.6366 12.0043 20.6529 12.0585 20.6681 12.1133C20.6733 12.1308 20.6774 12.1483 20.6821 12.1663C20.6949 12.2124 20.7071 12.259 20.7182 12.3062C20.7345 12.3721 20.7491 12.4386 20.7625 12.5056C20.7707 12.5482 20.7789 12.5913 20.7864 12.6339C20.794 12.677 20.801 12.7196 20.8074 12.7627C20.8138 12.8058 20.8197 12.849 20.8249 12.8927C20.8302 12.9347 20.8348 12.9766 20.8389 13.0192C20.8395 13.0204 20.8395 13.0215 20.8395 13.0227C20.8564 13.1958 20.8651 13.3713 20.8651 13.5485Z" fill="url(#paint1_radial_2456_1077)"/>
<defs>
<radialGradient id="paint0_radial_2456_1077" cx="0" cy="0" r="1" gradientUnits="userSpaceOnUse" gradientTransform="translate(15.0889 44.6475) rotate(-90) scale(75.7507 36.4395)">
<stop stop-color="#E64067"/>
<stop offset="0.55653" stop-color="#5926F0"/>
<stop offset="1" stop-color="#4828A0"/>
</radialGradient>
<radialGradient id="paint1_radial_2456_1077" cx="0" cy="0" r="1" gradientUnits="userSpaceOnUse" gradientTransform="translate(12.9013 8.21851) rotate(80.6157) scale(16.1527 96.9159)">
<stop stop-color="#E64067"/>
<stop offset="0.55653" stop-color="#5926F0"/>
<stop offset="1" stop-color="#4828A0"/>
</radialGradient>
</defs>
</svg>
