<svg width="19" height="19" viewBox="0 0 19 19" fill="none" xmlns="http://www.w3.org/2000/svg">
<path fill-rule="evenodd" clip-rule="evenodd" d="M16.4094 0.507538C16.4173 0.509962 16.4253 0.512379 16.4339 0.513068C17.3174 0.441515 18.0744 1.12992 18.0744 2.00813V15.5654C18.0744 16.2094 17.6646 16.7841 17.0538 16.995L12.5287 18.5036C12.363 18.5548 12.2101 18.5781 12.0489 18.5781C11.2181 18.5781 10.5425 17.9025 10.5425 17.0718V16.3186H8.28298C7.03722 16.3186 6.02344 15.3048 6.02344 14.059V12.5527C6.02344 12.1369 6.36086 11.7995 6.77662 11.7995C7.19238 11.7995 7.5298 12.1369 7.5298 12.5527V14.059C7.5298 14.4741 7.86798 14.8122 8.28298 14.8122H10.5425V3.5145C10.5425 2.87053 10.9523 2.29585 11.5623 2.08496L11.7921 2.00813H8.28298C7.86798 2.00813 7.5298 2.34631 7.5298 2.76132V3.5145C7.5298 3.93026 7.19238 4.26768 6.77662 4.26768C6.36086 4.26768 6.02344 3.93026 6.02344 3.5145V2.76132C6.02344 1.51555 7.03722 0.50177 8.28298 0.50177H16.3797C16.3903 0.50177 16.3999 0.504658 16.4094 0.507538ZM5.05159 4.48835L8.06432 7.50108C8.35882 7.79557 8.35882 8.27158 8.06432 8.56608L5.05159 11.5788C4.83618 11.7942 4.51231 11.859 4.23062 11.7422C3.94969 11.6255 3.76591 11.3506 3.76591 11.0463V8.78676H0.753182C0.337426 8.78676 0 8.44934 0 8.03358C0 7.61782 0.337426 7.2804 0.753182 7.2804H3.76591V5.02085C3.76591 4.71656 3.94969 4.44165 4.23062 4.32491C4.51231 4.20817 4.83618 4.27294 5.05159 4.48835Z" fill="url(#paint0_linear_2522_5933)"/>
<defs>
<linearGradient id="paint0_linear_2522_5933" x1="118.678" y1="111.468" x2="59.607" y2="138.787" gradientUnits="userSpaceOnUse">
<stop stop-color="#1A1617"/>
<stop offset="0.55653" stop-color="#5926F0"/>
<stop offset="1" stop-color="#4828A0"/>
</linearGradient>
</defs>
</svg>
