<svg width="124" height="35" viewBox="0 0 124 35" fill="none" xmlns="http://www.w3.org/2000/svg">
<path fill-rule="evenodd" clip-rule="evenodd" d="M23.2687 11.7431C23.2687 12.1299 23.2496 12.513 23.2127 12.8909C23.2127 12.8934 23.2127 12.896 23.2114 12.8985C23.2025 12.9914 23.1923 13.083 23.1809 13.1746C23.1694 13.2701 23.1567 13.3642 23.1427 13.4584C23.1287 13.5526 23.1134 13.6455 23.0969 13.7396C23.0803 13.8325 23.0625 13.9267 23.0447 14.0196C23.0154 14.1646 22.9836 14.3097 22.9493 14.4535C22.9238 14.5604 22.8946 14.666 22.8666 14.7716C22.8577 14.8047 22.8487 14.8378 22.8398 14.8721C22.8055 14.9956 22.7686 15.119 22.7291 15.2424C22.7266 15.2501 22.724 15.2577 22.7215 15.2666C21.2301 19.9684 16.8324 23.3774 11.6343 23.3774V34.8948L5.8178 29.2461L0 23.3583V11.5789H11.6343L0.0203598 0.127852H10.9752C11.1941 0.115127 11.4129 0.108765 11.6343 0.108765C16.8286 0.108765 21.2251 3.51266 22.719 8.21195C22.724 8.22595 22.7279 8.23995 22.7329 8.25394C22.7699 8.37228 22.8055 8.49063 22.8386 8.61024C22.85 8.64841 22.8589 8.68659 22.8691 8.72604C22.8971 8.82656 22.9238 8.92836 22.948 9.03143C22.9836 9.17522 23.0154 9.32029 23.0447 9.46662C23.0625 9.55951 23.0803 9.65368 23.0969 9.74657C23.1134 9.84073 23.1287 9.93362 23.1427 10.0278C23.1567 10.122 23.1694 10.2161 23.1809 10.3116C23.1923 10.4032 23.2025 10.4948 23.2114 10.5877C23.2127 10.5902 23.2127 10.5928 23.2127 10.5953C23.2496 10.9732 23.2687 11.3563 23.2687 11.7431Z" fill="url(#paint0_radial_2522_5913)"/>
<path d="M31.8835 23.6565H34.7494V7.81015H31.8835V23.6565Z" fill="black"/>
<path d="M36.9129 23.6565H39.6101V17.9008C39.6101 15.2998 41.1032 13.879 43.4633 13.879C45.6067 13.879 46.6663 14.9386 46.6663 16.8171V23.6565H49.3636V16.215C49.3636 13.2769 47.5092 11.567 44.4989 11.567C41.7294 11.567 40.1881 12.7953 39.5379 14.9386H39.5138L39.6101 11.7597H36.9129V23.6565Z" fill="black"/>
<path d="M56.2999 23.8492C60.105 23.8492 62.1279 22.4283 62.1279 20.02C62.1279 19.0567 61.6704 18.1416 60.8756 17.7081C60.0327 17.2265 59.0694 17.0579 57.3837 16.8893C55.9387 16.7448 54.8068 16.6244 54.2288 16.4317C53.5304 16.1909 53.41 15.7093 53.41 15.2035C53.41 14.192 54.4697 13.5177 56.3481 13.5177C58.3229 13.5177 59.1658 14.2643 59.1898 15.8056H61.6222C61.6222 13.1083 59.9846 11.567 56.2759 11.567C53.0488 11.567 50.7369 13.012 50.7369 15.3962C50.7369 16.3113 51.1222 17.1783 51.7724 17.6599C52.4949 18.1898 53.7472 18.4306 55.6015 18.5992C56.9261 18.7196 58.058 18.84 58.636 19.0567C59.2621 19.2735 59.4307 19.6829 59.4307 20.1405C59.4307 21.2242 58.4674 21.8985 56.2759 21.8985C53.9639 21.8985 53.1692 21.0556 53.1692 19.6829H50.7369C50.7369 22.0189 52.2059 23.8492 56.2999 23.8492Z" fill="black"/>
<path d="M68.9117 23.801C69.8991 23.801 70.7179 23.6324 71.0791 23.512V21.3687C70.742 21.465 69.9713 21.5854 69.297 21.5854C67.6594 21.5854 67.0814 20.8148 67.0814 19.2735V13.9512H71.1755V11.7597H67.0814V9.06245H64.8417L64.7213 10.8446C64.6491 11.5189 64.4805 11.7597 64.0229 11.7597H62.5057V13.9512H64.3842V19.418C64.3842 22.043 65.6605 23.801 68.9117 23.801Z" fill="black"/>
<path d="M76.3448 23.8492C78.9698 23.8492 80.3906 22.7895 80.776 21.0315H80.8C80.8 21.9948 80.7278 23.0785 80.6796 23.6565H83.3769V16.4076C83.3769 13.2769 81.2576 11.567 77.6452 11.567C74.2496 11.567 72.1785 12.9879 72.1785 15.3721C72.1785 15.5888 72.2026 15.9019 72.2266 16.0705H74.7071C74.6831 15.8778 74.6831 15.6852 74.6831 15.6129C74.6831 14.2884 75.7186 13.59 77.5489 13.59C79.6441 13.59 80.6796 14.3847 80.6796 16.1668V17.0097H76.2725C73.0936 17.0097 71.8172 18.4306 71.8172 20.2368C71.8172 22.5487 73.6234 23.8492 76.3448 23.8492ZM76.8987 21.8262C75.261 21.8262 74.2977 21.2001 74.2977 20.1164C74.2977 19.1771 74.9721 18.6473 76.5133 18.6473H80.6796V18.8641C80.6796 20.6944 79.2347 21.8262 76.8987 21.8262Z" fill="black"/>
<path d="M85.3093 23.6565H88.1992V18.7437H92.221C96.0261 18.7437 98.0972 16.7689 98.0972 13.3251C98.0972 9.78493 95.7853 7.81015 91.8598 7.81015H85.3093V23.6565ZM88.1992 16.6966V10.2184H91.7635C94.0754 10.2184 95.3518 11.3744 95.3518 13.4696C95.3518 15.637 94.1477 16.6966 92.0525 16.6966H88.1992Z" fill="black"/>
<path d="M103.704 23.8492C106.329 23.8492 107.75 22.7895 108.135 21.0315H108.159C108.159 21.9948 108.087 23.0785 108.039 23.6565H110.736V16.4076C110.736 13.2769 108.617 11.567 105.004 11.567C101.609 11.567 99.5377 12.9879 99.5377 15.3721C99.5377 15.5888 99.5617 15.9019 99.5858 16.0705H102.066C102.042 15.8778 102.042 15.6852 102.042 15.6129C102.042 14.2884 103.078 13.59 104.908 13.59C107.003 13.59 108.039 14.3847 108.039 16.1668V17.0097H103.632C100.453 17.0097 99.1764 18.4306 99.1764 20.2368C99.1764 22.5487 100.983 23.8492 103.704 23.8492ZM104.258 21.8262C102.62 21.8262 101.657 21.2001 101.657 20.1164C101.657 19.1771 102.331 18.6473 103.873 18.6473H108.039V18.8641C108.039 20.6944 106.594 21.8262 104.258 21.8262Z" fill="black"/>
<path d="M114.539 28.6898C116.899 28.6898 118.055 27.4616 119.379 23.8973L123.907 11.7597H121.258L117.91 20.9352H117.862L114.081 11.7597H110.974L116.128 23.6565H116.778C115.887 25.8721 115.309 26.4983 114.057 26.4983C113.455 26.4983 112.901 26.3538 112.564 26.2574V28.3767C112.901 28.4971 113.624 28.6898 114.539 28.6898Z" fill="black"/>
<defs>
<radialGradient id="paint0_radial_2522_5913" cx="0" cy="0" r="1" gradientUnits="userSpaceOnUse" gradientTransform="translate(5.88537 0.108766) rotate(80.6157) scale(35.2579 211.547)">
<stop stop-color="#E64067"/>
<stop offset="0.55653" stop-color="#5926F0"/>
<stop offset="1" stop-color="#4828A0"/>
</radialGradient>
</defs>
</svg>
