<svg width="16" height="14" viewBox="0 0 16 14" fill="none" xmlns="http://www.w3.org/2000/svg">
<path fill-rule="evenodd" clip-rule="evenodd" d="M0.921875 12.4184C0.921875 12.7058 1.03476 12.9813 1.23569 13.1845C1.43662 13.3876 1.70914 13.5018 1.9933 13.5018L14.8504 13.5018C15.1346 13.5018 15.4071 13.3876 15.6081 13.1845C15.809 12.9813 15.9219 12.7058 15.9219 12.4184C15.9219 12.1311 15.809 11.8556 15.6081 11.6524C15.4071 11.4492 15.1346 11.3351 14.8504 11.3351L1.9933 11.3351C1.70914 11.3351 1.43662 11.4492 1.23569 11.6524C1.03476 11.8556 0.921875 12.1311 0.921875 12.4184ZM0.921876 7.00177C0.921876 7.28909 1.03476 7.56464 1.23569 7.7678C1.43662 7.97097 1.70914 8.0851 1.9933 8.0851L14.8504 8.0851C15.1346 8.0851 15.4071 7.97097 15.6081 7.7678C15.809 7.56464 15.9219 7.28909 15.9219 7.00177C15.9219 6.71445 15.809 6.4389 15.6081 6.23574C15.4071 6.03257 15.1346 5.91844 14.8504 5.91844L1.9933 5.91844C1.70914 5.91844 1.43662 6.03257 1.23569 6.23574C1.03476 6.4389 0.921876 6.71445 0.921876 7.00177ZM0.921876 1.5851C0.921876 1.87242 1.03476 2.14797 1.23569 2.35114C1.43662 2.5543 1.70914 2.66844 1.9933 2.66844L14.8504 2.66844C15.1346 2.66844 15.4071 2.5543 15.6081 2.35114C15.809 2.14797 15.9219 1.87242 15.9219 1.5851C15.9219 1.29779 15.809 1.02224 15.6081 0.819072C15.4071 0.615908 15.1346 0.501771 14.8504 0.501771L1.9933 0.50177C1.70914 0.50177 1.43662 0.615907 1.23569 0.819071C1.03476 1.02223 0.921876 1.29778 0.921876 1.5851Z" fill="black"/>
<path fill-rule="evenodd" clip-rule="evenodd" d="M0.921875 12.4184C0.921875 12.7058 1.03476 12.9813 1.23569 13.1845C1.43662 13.3876 1.70914 13.5018 1.9933 13.5018L14.8504 13.5018C15.1346 13.5018 15.4071 13.3876 15.6081 13.1845C15.809 12.9813 15.9219 12.7058 15.9219 12.4184C15.9219 12.1311 15.809 11.8556 15.6081 11.6524C15.4071 11.4492 15.1346 11.3351 14.8504 11.3351L1.9933 11.3351C1.70914 11.3351 1.43662 11.4492 1.23569 11.6524C1.03476 11.8556 0.921875 12.1311 0.921875 12.4184ZM0.921876 7.00177C0.921876 7.28909 1.03476 7.56464 1.23569 7.7678C1.43662 7.97097 1.70914 8.0851 1.9933 8.0851L14.8504 8.0851C15.1346 8.0851 15.4071 7.97097 15.6081 7.7678C15.809 7.56464 15.9219 7.28909 15.9219 7.00177C15.9219 6.71445 15.809 6.4389 15.6081 6.23574C15.4071 6.03257 15.1346 5.91844 14.8504 5.91844L1.9933 5.91844C1.70914 5.91844 1.43662 6.03257 1.23569 6.23574C1.03476 6.4389 0.921876 6.71445 0.921876 7.00177ZM0.921876 1.5851C0.921876 1.87242 1.03476 2.14797 1.23569 2.35114C1.43662 2.5543 1.70914 2.66844 1.9933 2.66844L14.8504 2.66844C15.1346 2.66844 15.4071 2.5543 15.6081 2.35114C15.809 2.14797 15.9219 1.87242 15.9219 1.5851C15.9219 1.29779 15.809 1.02224 15.6081 0.819072C15.4071 0.615908 15.1346 0.501771 14.8504 0.501771L1.9933 0.50177C1.70914 0.50177 1.43662 0.615907 1.23569 0.819071C1.03476 1.02223 0.921876 1.29778 0.921876 1.5851Z" fill="url(#paint0_radial_2522_5918)"/>
<defs>
<radialGradient id="paint0_radial_2522_5918" cx="0" cy="0" r="1" gradientUnits="userSpaceOnUse" gradientTransform="translate(4.71584 13.5018) rotate(-74.0882) scale(13.5179 132.926)">
<stop stop-color="#E64067"/>
<stop offset="0.55653" stop-color="#5926F0"/>
<stop offset="1" stop-color="#4828A0"/>
</radialGradient>
</defs>
</svg>
