<svg width="52" height="52" viewBox="0 0 52 52" fill="none" xmlns="http://www.w3.org/2000/svg">
<path d="M19.3333 17.9076C19.3333 16.6348 19.3333 15.9984 19.5993 15.6431C19.8311 15.3335 20.1859 15.1398 20.5717 15.1123C21.0144 15.0807 21.5497 15.4248 22.6203 16.113L35.2085 24.2055C36.1376 24.8027 36.6021 25.1013 36.7625 25.481C36.9027 25.8128 36.9027 26.1872 36.7625 26.519C36.6021 26.8987 36.1376 27.1973 35.2085 27.7945L22.6203 35.887C21.5497 36.5752 21.0144 36.9193 20.5717 36.8877C20.1859 36.8602 19.8311 36.6665 19.5993 36.3569C19.3333 36.0016 19.3333 35.3652 19.3333 34.0924V17.9076Z" stroke="white" stroke-width="4" stroke-linecap="round" stroke-linejoin="round"/>
<path d="M2 14.8C2 10.3196 2 8.07937 2.87195 6.36808C3.63893 4.86278 4.86278 3.63893 6.36808 2.87195C8.07937 2 10.3196 2 14.8 2H37.2C41.6804 2 43.9206 2 45.6319 2.87195C47.1372 3.63893 48.3611 4.86278 49.1281 6.36808C50 8.07937 50 10.3196 50 14.8V37.2C50 41.6804 50 43.9206 49.1281 45.6319C48.3611 47.1372 47.1372 48.3611 45.6319 49.1281C43.9206 50 41.6804 50 37.2 50H14.8C10.3196 50 8.07937 50 6.36808 49.1281C4.86278 48.3611 3.63893 47.1372 2.87195 45.6319C2 43.9206 2 41.6804 2 37.2V14.8Z" stroke="white" stroke-width="4" stroke-linecap="round" stroke-linejoin="round"/>
</svg>
