<svg width="54" height="66" viewBox="0 0 54 66" fill="none" xmlns="http://www.w3.org/2000/svg">
<path d="M23.3281 17.2696H18.7516H15.0948V20.9263V34.5471V36.0551L16.1578 37.1247L22.9234 43.9329L22.95 43.9596L22.9771 43.9858L29.7413 50.5174L35.9381 56.5012V47.8869V37.8377C41.9642 36.5373 46.8126 32.089 48.6587 26.3018L48.6748 26.2513L48.6749 26.251C48.7311 26.0747 48.7841 25.8978 48.8339 25.7201L48.8427 25.6886L48.851 25.6569C48.8563 25.6363 48.8623 25.6142 48.8732 25.5738L48.8751 25.5669L48.877 25.5599C48.8801 25.5481 48.8844 25.5323 48.8895 25.5133C48.9142 25.4218 48.9589 25.2562 48.9953 25.1046C48.9955 25.1036 48.9958 25.1027 48.996 25.1018L45.4398 24.2502M23.3281 17.2696L45.6115 23.4248C45.5922 23.5322 45.5715 23.6411 45.5508 23.7485C45.5168 23.9162 45.4798 24.0839 45.4398 24.2502M23.3281 17.2696L16.2153 10.2963L9.82196 4.02844H18.7752H31.4157C31.7035 4.01372 31.9914 4.00637 32.2814 4.00637C39.9324 4.00637 46.4186 8.98445 48.642 15.8788L48.6518 15.9058L48.6774 15.9873C48.7246 16.138 48.7759 16.3061 48.8263 16.4858C48.8464 16.5553 48.8615 16.6127 48.8704 16.6474L48.8798 16.6845C48.9168 16.8179 48.9552 16.9639 48.9922 17.1194C49.0472 17.3415 49.0943 17.5569 49.1357 17.7627L49.1386 17.777L49.1413 17.7912C49.1629 17.9031 49.1873 18.031 49.2109 18.1628L49.2124 18.1713C49.2363 18.3064 49.2594 18.4461 49.2813 18.592C49.3019 18.7302 49.321 18.8704 49.3384 19.0137C49.352 19.1224 49.3646 19.2321 49.376 19.3436C49.3817 19.3903 49.3861 19.4343 49.3895 19.4747C49.4412 20.0149 49.468 20.5626 49.468 21.1161C49.468 21.6697 49.4412 22.2174 49.3895 22.7575C49.3861 22.798 49.3817 22.8419 49.376 22.8887C49.3646 23.0002 49.352 23.1099 49.3384 23.2187L23.3281 17.2696ZM45.4398 24.2502C45.4172 24.3448 45.3919 24.4386 45.3667 24.5321C45.359 24.5608 45.3513 24.5894 45.3436 24.6181M45.4398 24.2502L45.3436 24.6181M45.3436 24.6181C45.3333 24.6563 45.3229 24.6946 45.3125 24.7343C45.2726 24.877 45.2297 25.0198 45.1838 25.1625L45.3436 24.6181ZM48.663 15.9431L48.662 15.9402C48.663 15.9434 48.6638 15.9459 48.663 15.9431ZM48.6508 26.3249L48.6532 26.3177C48.6505 26.3261 48.6494 26.3291 48.6508 26.3249Z" fill="white"/>
<path d="M23.3281 17.2696H18.7516H15.0948V20.9263V34.5471V36.0551L16.1578 37.1247L22.9234 43.9329L22.95 43.9596L22.9771 43.9858L29.7413 50.5174L35.9381 56.5012V47.8869V37.8377C41.9642 36.5373 46.8126 32.089 48.6587 26.3018L48.6748 26.2513L48.6749 26.251C48.7311 26.0747 48.7841 25.8978 48.8339 25.7201L48.8427 25.6886L48.851 25.6569C48.8563 25.6363 48.8623 25.6142 48.8732 25.5738L48.8751 25.5669L48.877 25.5599C48.8801 25.5481 48.8844 25.5323 48.8895 25.5133C48.9142 25.4218 48.9589 25.2562 48.9953 25.1046C48.9955 25.1036 48.9958 25.1027 48.996 25.1018L45.4398 24.2502M23.3281 17.2696L45.6115 23.4248C45.5922 23.5322 45.5715 23.6411 45.5508 23.7485C45.5168 23.9162 45.4798 24.0839 45.4398 24.2502M23.3281 17.2696L16.2153 10.2963L9.82196 4.02844H18.7752H31.4157C31.7035 4.01372 31.9914 4.00637 32.2814 4.00637C39.9324 4.00637 46.4186 8.98445 48.642 15.8788L48.6518 15.9058L48.6774 15.9873C48.7246 16.138 48.7759 16.3061 48.8263 16.4858C48.8464 16.5553 48.8615 16.6127 48.8704 16.6474L48.8798 16.6845C48.9168 16.8179 48.9552 16.9639 48.9922 17.1194C49.0472 17.3415 49.0943 17.5569 49.1357 17.7627L49.1386 17.777L49.1413 17.7912C49.1629 17.9031 49.1873 18.031 49.2109 18.1628L49.2124 18.1713C49.2363 18.3064 49.2594 18.4461 49.2813 18.592C49.3019 18.7302 49.321 18.8704 49.3384 19.0137C49.352 19.1224 49.3646 19.2321 49.376 19.3436C49.3817 19.3903 49.3861 19.4343 49.3895 19.4747C49.4412 20.0149 49.468 20.5626 49.468 21.1161C49.468 21.6697 49.4412 22.2174 49.3895 22.7575C49.3861 22.798 49.3817 22.8419 49.376 22.8887C49.3646 23.0002 49.352 23.1099 49.3384 23.2187L23.3281 17.2696ZM45.4398 24.2502C45.4172 24.3448 45.3919 24.4386 45.3667 24.5321C45.359 24.5608 45.3513 24.5894 45.3436 24.6181M45.4398 24.2502L45.3436 24.6181M45.3436 24.6181C45.3333 24.6563 45.3229 24.6946 45.3125 24.7343C45.2726 24.877 45.2297 25.0198 45.1838 25.1625L45.3436 24.6181ZM48.663 15.9431L48.662 15.9402C48.663 15.9434 48.6638 15.9459 48.663 15.9431ZM48.6508 26.3249L48.6532 26.3177C48.6505 26.3261 48.6494 26.3291 48.6508 26.3249Z" fill="url(#paint0_radial_2522_5908)"/>
<path d="M23.3281 17.2696H18.7516H15.0948V20.9263V34.5471V36.0551L16.1578 37.1247L22.9234 43.9329L22.95 43.9596L22.9771 43.9858L29.7413 50.5174L35.9381 56.5012V47.8869V37.8377C41.9642 36.5373 46.8126 32.089 48.6587 26.3018L48.6748 26.2513L48.6749 26.251C48.7311 26.0747 48.7841 25.8978 48.8339 25.7201L48.8427 25.6886L48.851 25.6569C48.8563 25.6363 48.8623 25.6142 48.8732 25.5738L48.8751 25.5669L48.877 25.5599C48.8801 25.5481 48.8844 25.5323 48.8895 25.5133C48.9142 25.4218 48.9589 25.2562 48.9953 25.1046C48.9955 25.1036 48.9958 25.1027 48.996 25.1018L45.4398 24.2502M23.3281 17.2696L45.6115 23.4248C45.5922 23.5322 45.5715 23.6411 45.5508 23.7485C45.5168 23.9162 45.4798 24.0839 45.4398 24.2502M23.3281 17.2696L16.2153 10.2963L9.82196 4.02844H18.7752H31.4157C31.7035 4.01372 31.9914 4.00637 32.2814 4.00637C39.9324 4.00637 46.4186 8.98445 48.642 15.8788L48.6518 15.9058L48.6774 15.9873C48.7246 16.138 48.7759 16.3061 48.8263 16.4858C48.8464 16.5553 48.8615 16.6127 48.8704 16.6474L48.8798 16.6845C48.9168 16.8179 48.9552 16.9639 48.9922 17.1194C49.0472 17.3415 49.0943 17.5569 49.1357 17.7627L49.1386 17.777L49.1413 17.7912C49.1629 17.9031 49.1873 18.031 49.2109 18.1628L49.2124 18.1713C49.2363 18.3064 49.2594 18.4461 49.2813 18.592C49.3019 18.7302 49.321 18.8704 49.3384 19.0137C49.352 19.1224 49.3646 19.2321 49.376 19.3436C49.3817 19.3903 49.3861 19.4343 49.3895 19.4747C49.4412 20.0149 49.468 20.5626 49.468 21.1161C49.468 21.6697 49.4412 22.2174 49.3895 22.7575C49.3861 22.798 49.3817 22.8419 49.376 22.8887C49.3646 23.0002 49.352 23.1099 49.3384 23.2187L23.3281 17.2696ZM45.4398 24.2502C45.4172 24.3448 45.3919 24.4386 45.3667 24.5321C45.359 24.5608 45.3513 24.5894 45.3436 24.6181M45.4398 24.2502L45.3436 24.6181M45.3436 24.6181C45.3333 24.6563 45.3229 24.6946 45.3125 24.7343C45.2726 24.877 45.2297 25.0198 45.1838 25.1625L45.3436 24.6181ZM48.663 15.9431L48.662 15.9402C48.663 15.9434 48.6638 15.9459 48.663 15.9431ZM48.6508 26.3249L48.6532 26.3177C48.6505 26.3261 48.6494 26.3291 48.6508 26.3249Z" stroke="white" stroke-width="7.31343"/>
<defs>
<radialGradient id="paint0_radial_2522_5908" cx="0" cy="0" r="1" gradientUnits="userSpaceOnUse" gradientTransform="translate(25.5958 7.66309) rotate(80.5631) scale(40.7757 245.976)">
<stop stop-color="#E64067"/>
<stop offset="0.55653" stop-color="#5926F0"/>
<stop offset="1" stop-color="#4828A0"/>
</radialGradient>
</defs>
</svg>
