<svg width="18" height="19" viewBox="0 0 18 19" fill="none" xmlns="http://www.w3.org/2000/svg">
<rect y="0.5" width="18" height="18" rx="4" fill="white"/>
<rect y="0.5" width="18" height="18" rx="4" fill="url(#paint0_radial_2456_1129)" fill-opacity="0.1"/>
<g clip-path="url(#clip0_2456_1129)">
<path d="M13.3456 5.49335C13.2234 5.34396 13.0405 5.26172 12.8304 5.26172C12.7162 5.26172 12.5952 5.28575 12.4708 5.33328L4.006 8.56456C3.55678 8.73599 3.49628 8.99325 3.50017 9.13135C3.50406 9.26944 3.57906 9.52289 4.03728 9.66868C4.04002 9.66952 4.04277 9.67036 4.04552 9.67113L5.80135 10.1736L6.7509 12.8889C6.88037 13.2591 7.17097 13.489 7.50941 13.489C7.72281 13.489 7.93269 13.3996 8.11641 13.2305L9.20245 12.2306L10.7777 13.4989C10.7778 13.4991 10.7781 13.4992 10.7782 13.4993L10.7932 13.5114C10.7946 13.5124 10.796 13.5136 10.7974 13.5147C10.9725 13.6505 11.1636 13.7222 11.3503 13.7223H11.3504C11.7151 13.7223 12.0056 13.4523 12.0902 13.0345L13.4771 6.18602C13.5328 5.91113 13.4861 5.66516 13.3456 5.49335ZM6.38873 10.0782L9.77626 8.34758L7.66696 10.5889C7.6324 10.6256 7.60791 10.6705 7.59586 10.7194L7.18913 12.3669L6.38873 10.0782ZM7.71945 12.7995C7.70541 12.8124 7.6913 12.8239 7.67718 12.8345L8.05453 11.3062L8.74095 11.8589L7.71945 12.7995ZM12.9029 6.06967L11.5159 12.9182C11.5026 12.9837 11.4599 13.1362 11.3503 13.1362C11.2961 13.1362 11.2281 13.1067 11.1584 13.0531L9.37343 11.6159C9.3732 11.6156 9.37289 11.6154 9.37259 11.6152L8.3105 10.76L11.3608 7.5188C11.4585 7.41504 11.4673 7.25612 11.3818 7.14214C11.2962 7.02815 11.1411 6.99229 11.0142 7.05714L5.99727 9.62016L4.21756 9.11098L12.6798 5.88069C12.7513 5.85338 12.8012 5.84766 12.8304 5.84766C12.8483 5.84766 12.8802 5.84979 12.892 5.86436C12.9076 5.88336 12.9274 5.94814 12.9029 6.06967Z" fill="black"/>
</g>
<defs>
<radialGradient id="paint0_radial_2456_1129" cx="0" cy="0" r="1" gradientUnits="userSpaceOnUse" gradientTransform="translate(8.72551 27.8869) rotate(-90) scale(46.6357 22.4339)">
<stop stop-color="#E64067"/>
<stop offset="0.55653" stop-color="#5926F0"/>
<stop offset="1" stop-color="#4828A0"/>
</radialGradient>
<clipPath id="clip0_2456_1129">
<rect width="10" height="10" fill="white" transform="translate(3.5 4.5)"/>
</clipPath>
</defs>
</svg>
