<svg width="19" height="20" viewBox="0 0 19 20" fill="none" xmlns="http://www.w3.org/2000/svg">
<path d="M9.50002 18.3333V1.66667M5.33335 18.3333V14.1667M5.33335 5.83334V1.66667M13.6667 18.3333V14.1667M13.6667 5.83334V1.66667M1.16669 5.83334H17.8334M1.16669 14.1667H17.8334M17.8334 14.3333V5.66667C17.8334 4.26654 17.8334 3.56647 17.5609 3.0317C17.3212 2.56129 16.9387 2.17884 16.4683 1.93916C15.9336 1.66667 15.2335 1.66667 13.8334 1.66667L5.16669 1.66667C3.76656 1.66667 3.06649 1.66667 2.53171 1.93916C2.06131 2.17884 1.67885 2.56129 1.43917 3.0317C1.16669 3.56648 1.16669 4.26654 1.16669 5.66667L1.16669 14.3333C1.16669 15.7335 1.16669 16.4335 1.43917 16.9683C1.67885 17.4387 2.06131 17.8212 2.53171 18.0609C3.06649 18.3333 3.76656 18.3333 5.16669 18.3333H13.8334C15.2335 18.3333 15.9336 18.3333 16.4683 18.0609C16.9387 17.8212 17.3212 17.4387 17.5609 16.9683C17.8334 16.4335 17.8334 15.7335 17.8334 14.3333Z" stroke="#DFB400" stroke-width="1.5" stroke-linecap="round" stroke-linejoin="round"/>
</svg>
