<svg width="18" height="17" viewBox="0 0 18 17" fill="none" xmlns="http://www.w3.org/2000/svg">
<g clip-path="url(#clip0_2522_5924)">
<path d="M9.31532 7.74026C10.4403 7.74026 11.4145 7.3605 12.2105 6.61124C13.0064 5.8621 13.4099 4.94548 13.4099 3.88652C13.4099 2.82793 13.0064 1.91119 12.2104 1.1618C11.4143 0.412779 10.4402 0.03302 9.31532 0.03302C8.19018 0.03302 7.21626 0.412779 6.4203 1.16192C5.62433 1.91106 5.2207 2.82781 5.2207 3.88652C5.2207 4.94548 5.62433 5.86222 6.42043 6.61136C7.21652 7.36038 8.19057 7.74026 9.31532 7.74026Z" fill="white"/>
<path d="M16.4808 12.3362C16.4579 12.0244 16.4115 11.6843 16.3431 11.3252C16.2741 10.9634 16.1853 10.6214 16.0789 10.3087C15.969 9.98562 15.8196 9.66653 15.6349 9.36074C15.4432 9.04336 15.2181 8.76699 14.9654 8.53958C14.7012 8.30166 14.3778 8.11038 14.0037 7.97085C13.631 7.83206 13.2179 7.76175 12.776 7.76175C12.6024 7.76175 12.4346 7.82877 12.1105 8.02737C11.911 8.14981 11.6777 8.29141 11.4172 8.44803C11.1945 8.58157 10.8929 8.70669 10.5202 8.81997C10.1567 8.93069 9.78756 8.98684 9.42323 8.98684C9.05891 8.98684 8.68991 8.93069 8.32597 8.81997C7.95374 8.70681 7.65205 8.58169 7.42962 8.44815C7.17165 8.293 6.93819 8.1514 6.73573 8.02725C6.41199 7.82864 6.24403 7.76163 6.0705 7.76163C5.62848 7.76163 5.21552 7.83206 4.84289 7.97098C4.46909 8.11026 4.14549 8.30154 3.88103 8.5397C3.62851 8.76724 3.40322 9.04348 3.21178 9.36074C3.02722 9.66653 2.87781 9.9855 2.76782 10.3089C2.6616 10.6215 2.57275 10.9634 2.50375 11.3252C2.4354 11.6839 2.38897 12.0241 2.36601 12.3366C2.34344 12.6427 2.33203 12.9605 2.33203 13.2814C2.33203 14.1166 2.61413 14.7927 3.17041 15.2914C3.71982 15.7834 4.44678 16.0331 5.33082 16.0331H13.5164C14.4005 16.0331 15.1272 15.7836 15.6767 15.2914C16.2331 14.7931 16.5152 14.1168 16.5152 13.2813C16.5151 12.9589 16.5035 12.6409 16.4808 12.3362Z" fill="white"/>
</g>
<defs>
<clipPath id="clip0_2522_5924">
<rect width="17" height="16" fill="white" transform="translate(0.9375 0.03302)"/>
</clipPath>
</defs>
</svg>
