<svg width="18" height="19" viewBox="0 0 18 19" fill="none" xmlns="http://www.w3.org/2000/svg">
<rect y="0.5" width="18" height="18" rx="4" fill="white"/>
<rect y="0.5" width="18" height="18" rx="4" fill="url(#paint0_radial_2456_1121)" fill-opacity="0.1"/>
<g clip-path="url(#clip0_2456_1121)">
<path fill-rule="evenodd" clip-rule="evenodd" d="M10.4326 10.2015C10.2055 10.2943 10.0604 10.6498 9.91319 10.8315C9.83772 10.9245 9.74772 10.9391 9.6317 10.8924C8.77928 10.5528 8.12584 9.98398 7.65545 9.19953C7.57577 9.07789 7.59006 8.9818 7.68616 8.86883C7.82819 8.70148 8.00678 8.51141 8.04522 8.28594C8.13053 7.78719 7.4785 6.24008 6.61741 6.94109C4.13959 8.96023 10.7508 14.3155 11.944 11.4191C12.2815 10.598 10.809 10.0473 10.4326 10.2015ZM9.00006 14.4519C8.12373 14.4519 7.26147 14.2189 6.50655 13.7778C6.38538 13.7068 6.23889 13.688 6.10342 13.7248L4.46303 14.1751L5.03444 12.9163C5.11225 12.7449 5.09233 12.5455 4.98241 12.3931C4.37116 11.5459 4.04795 10.5455 4.04795 9.5C4.04795 6.7693 6.26936 4.54789 9.00006 4.54789C11.7308 4.54789 13.9519 6.7693 13.9519 9.5C13.9519 12.2305 11.7305 14.4519 9.00006 14.4519ZM9.00006 3.5C5.69163 3.5 3.00006 6.19156 3.00006 9.5C3.00006 10.6639 3.33053 11.7816 3.95842 12.7517L3.04694 14.7591C2.9628 14.9445 2.9935 15.1616 3.12522 15.316C3.22647 15.4344 3.37295 15.5 3.52413 15.5C3.86209 15.5 5.70498 14.9209 6.17397 14.7922C7.04092 15.256 8.01334 15.5 9.00006 15.5C12.3083 15.5 15.0001 12.8082 15.0001 9.5C15.0001 6.19156 12.3083 3.5 9.00006 3.5Z" fill="black"/>
</g>
<defs>
<radialGradient id="paint0_radial_2456_1121" cx="0" cy="0" r="1" gradientUnits="userSpaceOnUse" gradientTransform="translate(8.72551 27.8869) rotate(-90) scale(46.6357 22.4339)">
<stop stop-color="#E64067"/>
<stop offset="0.55653" stop-color="#5926F0"/>
<stop offset="1" stop-color="#4828A0"/>
</radialGradient>
<clipPath id="clip0_2456_1121">
<rect width="12" height="12" fill="white" transform="translate(3 3.5)"/>
</clipPath>
</defs>
</svg>
