<svg width="191" height="55" viewBox="0 0 191 55" fill="none" xmlns="http://www.w3.org/2000/svg">
<path fill-rule="evenodd" clip-rule="evenodd" d="M35.8997 18.6593C35.8997 19.2532 35.8704 19.8412 35.8137 20.4214C35.8137 20.4253 35.8137 20.4292 35.8118 20.4331C35.7981 20.5757 35.7825 20.7164 35.7649 20.857C35.7473 21.0035 35.7278 21.1481 35.7063 21.2927C35.6848 21.4372 35.6614 21.5798 35.636 21.7244C35.6106 21.867 35.5832 22.0115 35.5559 22.1541C35.5109 22.3768 35.4621 22.5996 35.4094 22.8203C35.3703 22.9844 35.3254 23.1465 35.2824 23.3087C35.2687 23.3595 35.255 23.4103 35.2414 23.463C35.1886 23.6525 35.132 23.842 35.0714 24.0315C35.0675 24.0432 35.0636 24.0549 35.0597 24.0686C32.7702 31.2868 26.0188 36.5203 18.0387 36.5203V54.2017L9.1092 45.5299L0.177734 36.491V18.4073H18.0387L0.208991 0.827643H17.0268C17.3628 0.808107 17.6988 0.79834 18.0387 0.79834C26.013 0.79834 32.7623 6.02399 35.0558 13.2383C35.0636 13.2598 35.0694 13.2813 35.0773 13.3028C35.1339 13.4845 35.1886 13.6661 35.2394 13.8498C35.257 13.9084 35.2707 13.967 35.2863 14.0275C35.3293 14.1819 35.3703 14.3381 35.4074 14.4964C35.4621 14.7171 35.5109 14.9398 35.5559 15.1645C35.5832 15.3071 35.6106 15.4516 35.636 15.5943C35.6614 15.7388 35.6848 15.8814 35.7063 16.026C35.7278 16.1705 35.7473 16.3151 35.7649 16.4616C35.7825 16.6023 35.7981 16.7429 35.8118 16.8855C35.8137 16.8894 35.8137 16.8933 35.8137 16.8972C35.8704 17.4774 35.8997 18.0654 35.8997 18.6593Z" fill="white"/>
<path d="M49.1211 36.9496H53.5207V12.6223H49.1211V36.9496Z" fill="white"/>
<path d="M56.8421 36.9496H60.9829V28.1134C60.9829 24.1205 63.2751 21.9391 66.8983 21.9391C70.1888 21.9391 71.8155 23.5659 71.8155 26.4497V36.9496H75.9564V25.5254C75.9564 21.0149 73.1096 18.3899 68.4881 18.3899C64.2364 18.3899 61.8702 20.2754 60.872 23.5659H60.835L60.9829 18.6856H56.8421V36.9496Z" fill="white"/>
<path d="M86.605 37.2454C92.4465 37.2454 95.5521 35.064 95.5521 31.3669C95.5521 29.888 94.8497 28.4831 93.6296 27.8176C92.3356 27.0782 90.8567 26.8194 88.2687 26.5606C86.0504 26.3388 84.3128 26.1539 83.4255 25.8581C82.3533 25.4884 82.1684 24.749 82.1684 23.9726C82.1684 22.4198 83.7952 21.3846 86.679 21.3846C89.7106 21.3846 91.0046 22.5307 91.0416 24.8969H94.7757C94.7757 20.7561 92.2617 18.3899 86.5681 18.3899C81.6139 18.3899 78.0646 20.6082 78.0646 24.2683C78.0646 25.6733 78.6561 27.0042 79.6544 27.7437C80.7635 28.557 82.686 28.9268 85.5328 29.1856C87.5663 29.3704 89.3039 29.5553 90.1913 29.888C91.1525 30.2208 91.4113 30.8493 91.4113 31.5517C91.4113 33.2155 89.9325 34.2507 86.5681 34.2507C83.0188 34.2507 81.7987 32.9567 81.7987 30.8493H78.0646C78.0646 34.4355 80.3199 37.2454 86.605 37.2454Z" fill="white"/>
<path d="M105.967 37.1714C107.482 37.1714 108.739 36.9126 109.294 36.7278V33.4373C108.776 33.5852 107.593 33.77 106.558 33.77C104.044 33.77 103.157 32.5869 103.157 30.2208V22.0501H109.442V18.6856H103.157V14.5448H99.7184L99.5335 17.2807C99.4226 18.3159 99.1638 18.6856 98.4613 18.6856H96.1321V22.0501H99.0159V30.4426C99.0159 34.4725 100.975 37.1714 105.967 37.1714Z" fill="white"/>
<path d="M117.378 37.2454C121.408 37.2454 123.589 35.6186 124.181 32.9197H124.217C124.217 34.3985 124.107 36.0623 124.033 36.9496H128.173V25.8211C128.173 21.0149 124.92 18.3899 119.374 18.3899C114.161 18.3899 110.982 20.5712 110.982 24.2314C110.982 24.5641 111.019 25.0447 111.056 25.3035H114.864C114.827 25.0078 114.827 24.712 114.827 24.6011C114.827 22.5677 116.416 21.4955 119.226 21.4955C122.443 21.4955 124.033 22.7155 124.033 25.4514V26.7454H117.267C112.387 26.7454 110.427 28.9268 110.427 31.6996C110.427 35.2489 113.2 37.2454 117.378 37.2454ZM118.228 34.1397C115.714 34.1397 114.235 33.1785 114.235 31.5148C114.235 30.0729 115.27 29.2595 117.637 29.2595H124.033V29.5922C124.033 32.4021 121.814 34.1397 118.228 34.1397Z" fill="white"/>
<path d="M131.14 36.9496H135.577V29.4074H141.751C147.592 29.4074 150.772 26.3757 150.772 21.0888C150.772 15.654 147.223 12.6223 141.196 12.6223H131.14V36.9496ZM135.577 26.2648V16.3195H141.048C144.598 16.3195 146.557 18.0941 146.557 21.3106C146.557 24.6381 144.709 26.2648 141.492 26.2648H135.577Z" fill="white"/>
<path d="M159.379 37.2454C163.409 37.2454 165.591 35.6186 166.182 32.9197H166.219C166.219 34.3985 166.108 36.0623 166.034 36.9496H170.175V25.8211C170.175 21.0149 166.922 18.3899 161.376 18.3899C156.163 18.3899 152.983 20.5712 152.983 24.2314C152.983 24.5641 153.02 25.0447 153.057 25.3035H156.865C156.828 25.0078 156.828 24.712 156.828 24.6011C156.828 22.5677 158.418 21.4955 161.228 21.4955C164.445 21.4955 166.034 22.7155 166.034 25.4514V26.7454H159.269C154.388 26.7454 152.429 28.9268 152.429 31.6996C152.429 35.2489 155.202 37.2454 159.379 37.2454ZM160.23 34.1397C157.716 34.1397 156.237 33.1785 156.237 31.5148C156.237 30.0729 157.272 29.2595 159.638 29.2595H166.034V29.5922C166.034 32.4021 163.816 34.1397 160.23 34.1397Z" fill="white"/>
<path d="M176.013 44.6766C179.636 44.6766 181.411 42.7911 183.444 37.3193L190.395 18.6856H186.328L181.189 32.7718H181.115L175.31 18.6856H170.541L178.453 36.9496H179.451C178.083 40.351 177.196 41.3122 175.273 41.3122C174.349 41.3122 173.499 41.0904 172.981 40.9425V44.196C173.499 44.3809 174.608 44.6766 176.013 44.6766Z" fill="white"/>
</svg>
